<svg width="512" height="512" viewBox="0 0 512 512" fill="none" xmlns="http://www.w3.org/2000/svg">
  <rect x="64" y="64" width="384" height="384" rx="104" fill="#09090B"/>
  <path d="M160 184C160 170.745 170.745 160 184 160H328C341.255 160 352 170.745 352 184C352 197.255 341.255 208 328 208H280V328C280 341.255 269.255 352 256 352C242.745 352 232 341.255 232 328V208H184C170.745 208 160 197.255 160 184Z" fill="#FAFAFA"/>
  <path d="M160 264C160 250.745 170.745 240 184 240H216C229.255 240 240 250.745 240 264C240 277.255 229.255 288 216 288H184C170.745 288 160 277.255 160 264Z" fill="#FAFAFA" fill-opacity="0.9"/>
</svg>